<svg width="24" height="24" viewBox="0 0 24 24" fill="none" xmlns="http://www.w3.org/2000/svg">
<path fill-rule="evenodd" clip-rule="evenodd" d="M16.3703 1.90695C16.3703 4.57972 14.4977 6.11192 12.4851 6.74404V6.62037C12.4318 6.29057 12.3984 5.98825 12.3984 5.74777C12.3984 3.19181 14.2378 1.57028 16.2837 1L16.3103 1.12368C16.3436 1.42599 16.3703 1.69396 16.3703 1.90695ZM20.9667 16.535V16.6861V16.6999C20.9667 16.7409 20.9737 16.7819 20.9813 16.8263C20.9903 16.8785 21 16.9353 21 17.0022C21 19.3726 18.5076 22.918 15.8086 22.918C15.2597 22.918 14.7045 22.7173 14.1352 22.5115C13.5364 22.295 12.9221 22.0729 12.2832 22.0729C11.5082 22.0729 10.8039 22.3469 10.161 22.597C9.62086 22.8071 9.12397 23.0005 8.66457 23.0005C7.27175 23.0005 6.02555 21.7637 5.01925 19.8742C3.61977 17.2908 3 14.3157 3 12.3918C3 8.75715 6.0522 5.96071 9.13106 5.96071C9.88975 5.96071 10.407 6.26513 10.9134 6.56316C11.3989 6.8489 11.8744 7.12875 12.5431 7.12875C13.4718 7.12875 14.2022 6.76993 14.874 6.43991C15.4459 6.15895 15.9752 5.89887 16.5483 5.89887C18.3277 5.89887 19.4806 6.98447 20.3402 8.06319L20.2803 8.09067C18.9807 9.02511 18.2677 10.468 18.2677 12.117C18.2677 14.1645 19.2207 15.573 20.9667 16.535Z" fill="#CED4DA"/>
</svg>
