<svg width="24" height="24" viewBox="0 0 24 24" fill="none" xmlns="http://www.w3.org/2000/svg">
<path fill-rule="evenodd" clip-rule="evenodd" d="M11.9721 0C11.3568 0 10.8579 0.498847 10.8579 1.11421V1.56103C7.70243 2.07039 5.21273 4.65648 4.91474 7.92833L4.40451 13.5307C4.35972 14.0225 4.06319 14.4562 3.62068 14.677L3.61667 14.679C2.62587 15.1735 2 16.1843 2 17.2901V17.7258C2 19.1434 3.15127 20.2926 4.57143 20.2926H8.85686V20.8629C8.85686 22.5955 10.264 24 11.9997 24C13.7355 24 15.1426 22.5955 15.1426 20.8629V20.2926H19.4286C20.8487 20.2926 22 19.1434 22 17.7258V17.2901C22 16.1843 21.3741 15.1735 20.3833 14.679L20.3793 14.677C19.9368 14.4562 19.6403 14.0225 19.5955 13.5307L19.0853 7.92833C18.7855 4.63723 16.2682 2.03999 13.0863 1.55226V1.11421C13.0863 0.498847 12.5875 0 11.9721 0ZM10.5711 20.8629V20.2926H13.4283V20.8629C13.4283 21.6504 12.7887 22.2888 11.9997 22.2888C11.2107 22.2888 10.5711 21.6504 10.5711 20.8629ZM6.62176 8.08321C6.87463 5.30675 9.20677 3.18087 11.9998 3.18087C14.7928 3.18087 17.1249 5.30675 17.3778 8.08321L17.888 13.6856C17.9866 14.7675 18.6389 15.7216 19.6164 16.2095C20.0265 16.4141 20.2855 16.8324 20.2855 17.29V17.7258C20.2855 18.1983 19.9017 18.5814 19.4283 18.5814H4.5712C4.09781 18.5814 3.71406 18.1983 3.71406 17.7258V17.29C3.71406 16.8324 3.97306 16.4141 4.38711 16.2075C5.36062 15.7216 6.01299 14.7675 6.11153 13.6856L6.62176 8.08321Z" fill="#A7A7A7"/>
</svg>
