<svg width="28" height="28" viewBox="0 0 28 28" fill="none" xmlns="http://www.w3.org/2000/svg">
<path d="M6.7757 7C3.58639 7 1.00094 9.57951 1.00094 12.7615V16.6025C1.00094 16.8333 1 17.1516 1 17.1516C1 17.1516 1 17.466 1 17.5627V26.0377C1 26.8581 1.9645 27.3007 2.58882 26.7668L6.0117 23.0443C6.41036 22.6107 6.9724 22.364 7.56139 22.364H11.9312H17.2252C20.4146 22.364 23 19.7845 23 16.6025V12.7615C23 9.57951 20.4146 7 17.2252 7H6.7757Z" stroke="#D4F153" stroke-width="1.99998"/>
<line x1="6.99999" y1="13" x2="16.9999" y2="13" stroke="#D4F153" stroke-width="1.99998" stroke-linecap="round"/>
<line x1="7.00072" y1="17" x2="11.5461" y2="17" stroke="#D4F153" stroke-width="1.99998" stroke-linecap="round"/>
<rect x="16" width="12" height="12" rx="6" fill="#FF4747"/>
<path d="M24.3594 3.34375V9H23.3438L20.8594 5.40625H20.8125V9H19.6406V3.34375H20.6719L23.1406 6.9375H23.1953V3.34375H24.3594Z" fill="white"/>
</svg>
