<svg width="24" height="24" viewBox="0 0 24 24" fill="none" xmlns="http://www.w3.org/2000/svg">
<path fill-rule="evenodd" clip-rule="evenodd" d="M10.5 6C10.5 5.72386 10.7239 5.5 11 5.5C11.2761 5.5 11.5 5.72386 11.5 6C11.5 6.27614 11.2761 6.5 11 6.5C10.7239 6.5 10.5 6.27614 10.5 6ZM9.14538 6.75L4 6.75V5.25L9.14538 5.25C9.44207 4.51704 10.1607 4 11 4C11.8393 4 12.5579 4.51704 12.8546 5.25L20 5.25V6.75L12.8546 6.75C12.5579 7.48296 11.8393 8 11 8C10.1607 8 9.44207 7.48296 9.14538 6.75ZM15.5 12C15.5 11.7239 15.7239 11.5 16 11.5C16.2761 11.5 16.5 11.7239 16.5 12C16.5 12.2761 16.2761 12.5 16 12.5C15.7239 12.5 15.5 12.2761 15.5 12ZM14.1454 12.75H4V11.25H14.1454C14.4421 10.517 15.1607 10 16 10C16.8393 10 17.5579 10.517 17.8546 11.25L20 11.25V12.75L17.8546 12.75C17.5579 13.483 16.8393 14 16 14C15.1607 14 14.4421 13.483 14.1454 12.75ZM8 17.5C7.72386 17.5 7.5 17.7239 7.5 18C7.5 18.2761 7.72386 18.5 8 18.5C8.27614 18.5 8.5 18.2761 8.5 18C8.5 17.7239 8.27614 17.5 8 17.5ZM4 18.75H6.14538C6.44207 19.483 7.16066 20 8 20C8.83934 20 9.55793 19.483 9.85462 18.75L20 18.75V17.25L9.85462 17.25C9.55793 16.517 8.83934 16 8 16C7.16066 16 6.44207 16.517 6.14538 17.25H4V18.75Z" fill="#A7A7A7"/>
</svg>
