<svg width="24" height="24" viewBox="0 0 24 24" fill="none" xmlns="http://www.w3.org/2000/svg">
<path fill-rule="evenodd" clip-rule="evenodd" d="M7.75 2H2.75C2.33579 2 2 2.33579 2 2.75V7.75H3.5V4.56066L8.21967 9.28033L9.28033 8.21967L4.56066 3.5H7.75V2ZM21.5 7.75V2.75C21.5 2.33579 21.1642 2 20.75 2H15.75V3.5H18.9393L14.2197 8.21967L15.2803 9.28033L20 4.56066V7.75H21.5ZM21.5 15.75V20.75C21.5 21.1642 21.1642 21.5 20.75 21.5H15.75V20H18.9393L14.2197 15.2803L15.2803 14.2197L20 18.9393V15.75H21.5ZM2 20.75C2 21.1642 2.33579 21.5 2.75 21.5H7.75V20H4.56066L9.28033 15.2803L8.21967 14.2197L3.5 18.9393L3.5 15.75H2V20.75Z" fill="#A7A7A7"/>
</svg>
