<svg width="24" height="24" viewBox="0 0 24 24" fill="none" xmlns="http://www.w3.org/2000/svg">
<path fill-rule="evenodd" clip-rule="evenodd" d="M18 3C17.4477 3 17 3.44772 17 4V20C17 20.5523 17.4477 21 18 21H21C21.5523 21 22 20.5523 22 20V4C22 3.44772 21.5523 3 21 3H18ZM9.5 10C9.5 9.44771 9.94772 9 10.5 9H13.5C14.0523 9 14.5 9.44772 14.5 10V20C14.5 20.5523 14.0523 21 13.5 21H10.5C9.94772 21 9.5 20.5523 9.5 20V10ZM2 16C2 15.4477 2.44772 15 3 15H6C6.55228 15 7 15.4477 7 16V20C7 20.5523 6.55228 21 6 21H3C2.44772 21 2 20.5523 2 20V16Z" fill="white"/>
</svg>
