<svg width="24" height="24" viewBox="0 0 24 24" fill="none" xmlns="http://www.w3.org/2000/svg">
<path d="M3.71908 13.1455C2.21045 11.5956 1.74221 10.1828 1.7501 8.73053L3.71908 13.1455ZM3.71908 13.1455L8.08053 17.0485L11.8038 19.9372C11.8932 20.0065 12.018 20.0072 12.1082 19.9389L15.9225 17.0458L20.2809 13.1455C21.7895 11.5956 22.2578 10.1828 22.2499 8.73053C22.2419 7.33599 21.7078 6.08286 20.7526 5.1845C19.4682 3.97743 18.038 3.60901 16.6399 3.79583C15.2163 3.98606 13.779 4.76142 12.5704 5.9269C12.2799 6.20708 11.8197 6.20708 11.5292 5.9269C10.3244 4.76502 8.86311 3.98707 7.41139 3.79603C5.9832 3.60808 4.52882 3.98028 3.24756 5.18433L3.71908 13.1455ZM1.7501 8.73032C1.75816 7.33587 2.29227 6.08282 3.24738 5.1845L1.7501 8.73032Z" stroke="#A7A7A7" stroke-width="1.5" stroke-linejoin="round"/>
</svg>
