<svg width="24" height="24" viewBox="0 0 24 24" fill="none" xmlns="http://www.w3.org/2000/svg">
<path d="M3 9.98364C3 8.96511 3.49459 8.01002 4.32641 7.42225L12 2L19.6736 7.42225C20.5054 8.01002 21 8.96511 21 9.98364V18.3864C21 19.8299 19.8299 21 18.3864 21H15.7454C15.1681 21 14.7 20.5319 14.7 19.9546V15.0454C14.7 14.7568 14.466 14.5227 14.1773 14.5227H9.82272C9.53403 14.5227 9.3 14.7568 9.3 15.0454V19.9546C9.3 20.5319 8.83194 21 8.25456 21H5.6136C4.17015 21 3 19.8299 3 18.3864V9.98364Z" stroke="#D4F153" stroke-width="1.99998" stroke-linecap="round" stroke-linejoin="round"/>
</svg>
