<svg width="24" height="24" viewBox="0 0 24 24" fill="none" xmlns="http://www.w3.org/2000/svg">
<path fill-rule="evenodd" clip-rule="evenodd" d="M12.75 20.4674C16.846 20.1093 20.1093 16.846 20.4674 12.75H17V11.25H20.4674C20.1093 7.15398 16.846 3.89072 12.75 3.53263V7H11.25V3.53263C7.15398 3.89072 3.89072 7.15398 3.53263 11.25H7V12.75H3.53263C3.89072 16.846 7.15398 20.1093 11.25 20.4674V17H12.75V20.4674ZM2.0277 12.75C2.39287 17.6749 6.32505 21.6071 11.25 21.9723V22H12H12.75V21.9723C17.6749 21.6071 21.6071 17.6749 21.9723 12.75H22V12V11.25H21.9723C21.6071 6.32505 17.6749 2.39287 12.75 2.0277V2H12H11.25V2.0277C6.32505 2.39287 2.39287 6.32505 2.0277 11.25H2V12V12.75H2.0277Z" fill="#D4F153"/>
</svg>
