<svg width="24" height="24" viewBox="0 0 24 24" fill="none" xmlns="http://www.w3.org/2000/svg">
<path fill-rule="evenodd" clip-rule="evenodd" d="M14.7183 13.3504C16.6659 12.3589 18 10.3352 18 8C18 4.68629 15.3137 2 12 2C8.68629 2 6 4.68629 6 8C6 10.3352 7.33411 12.3589 9.28173 13.3504C6.47836 14.086 4.04889 15.9414 2.61452 18.5494L2.06519 19.5481C2.02242 19.6259 2 19.7132 2 19.8019V20C2 20.5523 2.44772 21 3 21H21C21.5523 21 22 20.5523 22 20V19.8019C22 19.7132 21.9776 19.6259 21.9348 19.5481L21.3855 18.5494C19.9511 15.9414 17.5216 14.086 14.7183 13.3504Z" fill="#D4F153"/>
</svg>
