<svg width="24" height="24" viewBox="0 0 24 24" fill="none" xmlns="http://www.w3.org/2000/svg">
<path fill-rule="evenodd" clip-rule="evenodd" d="M1.5 11.75C1.5 6.09817 6.14382 1.5 11.8927 1.5C15.6354 1.5 18.9131 3.45037 20.7429 6.37375L18.3771 6.37874L18.3803 7.87874L22.6319 7.86976C23.0449 7.86889 23.3794 7.53432 23.3803 7.12135L23.3892 2.90559L21.8892 2.90242L21.884 5.37438C19.7648 2.13903 16.0801 0 11.8927 0C5.33368 0 0 5.25157 0 11.75C0 18.2484 5.33368 23.5 11.8927 23.5C15.6796 23.5 19.0557 21.7502 21.2337 19.0233L20.0616 18.0872C18.1587 20.4697 15.2084 22 11.8927 22C6.14382 22 1.5 17.4018 1.5 11.75Z" fill="#A7A7A7"/>
<path d="M11.8705 6.6722L16.8705 9.42201C16.9504 9.46595 17 9.54989 17 9.64107V15.75C17 15.8881 16.8881 16 16.75 16H13.75C13.6119 16 13.5 15.8881 13.5 15.75V13.75C13.5 12.7835 12.7165 12 11.75 12C10.7835 12 10 12.7835 10 13.75V15.75C10 15.8881 9.88807 16 9.75 16H6.75C6.61193 16 6.5 15.8881 6.5 15.75V9.64127C6.5 9.5501 6.54963 9.46616 6.62952 9.42222L11.6295 6.67221C11.7046 6.63095 11.7955 6.63095 11.8705 6.6722Z" stroke="#A7A7A7" stroke-width="1.5" stroke-miterlimit="10" stroke-linecap="round"/>
</svg>
