<svg width="25" height="24" viewBox="0 0 25 24" fill="none" xmlns="http://www.w3.org/2000/svg">
<path fill-rule="evenodd" clip-rule="evenodd" d="M18.5 11C18.5 14.866 15.366 18 11.5 18C7.63401 18 4.5 14.866 4.5 11C4.5 7.13401 7.63401 4 11.5 4C15.366 4 18.5 7.13401 18.5 11ZM17.1177 18.0319C15.578 19.2635 13.625 20 11.5 20C6.52944 20 2.5 15.9706 2.5 11C2.5 6.02944 6.52944 2 11.5 2C16.4706 2 20.5 6.02944 20.5 11C20.5 13.125 19.7635 15.078 18.5319 16.6177L23.2071 21.2929C23.5976 21.6834 23.5976 22.3166 23.2071 22.7071C22.8166 23.0976 22.1834 23.0976 21.7929 22.7071L17.1177 18.0319Z" fill="#D4F153"/>
</svg>
