<svg width="24" height="24" viewBox="0 0 24 24" fill="none" xmlns="http://www.w3.org/2000/svg">
<path d="M9.99976 2V1.25C9.67693 1.25 9.39033 1.45657 9.28824 1.76283L9.99976 2ZM13.9998 2L14.7113 1.76283C14.6092 1.45657 14.3226 1.25 13.9998 1.25V2ZM9.36052 3.9177L9.5932 4.6307C9.8192 4.55695 9.99686 4.38041 10.072 4.15488L9.36052 3.9177ZM8.15146 4.419L7.81605 5.08982C8.02883 5.19621 8.27945 5.19534 8.49148 5.0875L8.15146 4.419ZM6.3429 3.51472L6.67831 2.8439C6.38957 2.69953 6.04084 2.75612 5.81257 2.98439L6.3429 3.51472ZM3.51448 6.34314L2.98415 5.81281C2.75588 6.04108 2.69928 6.38981 2.84366 6.67856L3.51448 6.34314ZM4.41876 8.15171L5.08725 8.49173C5.1951 8.27969 5.19596 8.02907 5.08958 7.8163L4.41876 8.15171ZM3.91746 9.36076L4.15463 10.0723C4.38017 9.9971 4.5567 9.81944 4.63046 9.59344L3.91746 9.36076ZM1.99976 10L1.76259 9.28849C1.45633 9.39057 1.24976 9.67718 1.24976 10H1.99976ZM1.99976 14H1.24976C1.24976 14.3228 1.45633 14.6094 1.76259 14.7115L1.99976 14ZM3.91746 14.6392L4.63046 14.4066C4.5567 14.1806 4.38017 14.0029 4.15463 13.9277L3.91746 14.6392ZM4.41876 15.8483L5.08958 16.1837C5.19596 15.9709 5.1951 15.7203 5.08725 15.5083L4.41876 15.8483ZM3.51448 17.6569L2.84365 17.3214C2.69928 17.6102 2.75588 17.9589 2.98415 18.1872L3.51448 17.6569ZM6.3429 20.4853L5.81257 21.0156C6.04084 21.2439 6.38957 21.3005 6.67831 21.1561L6.3429 20.4853ZM8.15146 19.581L8.49148 18.9125C8.27945 18.8047 8.02883 18.8038 7.81605 18.9102L8.15146 19.581ZM9.36052 20.0823L10.072 19.8451C9.99686 19.6196 9.8192 19.4431 9.59319 19.3693L9.36052 20.0823ZM9.99976 22L9.28824 22.2372C9.39033 22.5434 9.67693 22.75 9.99976 22.75V22ZM13.9998 22V22.75C14.3226 22.75 14.6092 22.5434 14.7113 22.2372L13.9998 22ZM14.639 20.0823L14.4063 19.3693C14.1803 19.4431 14.0027 19.6196 13.9275 19.8451L14.639 20.0823ZM15.848 19.581L16.1835 18.9102C15.9707 18.8038 15.7201 18.8047 15.508 18.9125L15.848 19.581ZM17.6566 20.4853L17.3212 21.1561C17.6099 21.3005 17.9587 21.2439 18.1869 21.0156L17.6566 20.4853ZM20.485 17.6569L21.0154 18.1872C21.2436 17.9589 21.3002 17.6102 21.1559 17.3214L20.485 17.6569ZM19.5808 15.8483L18.9123 15.5083C18.8044 15.7203 18.8035 15.9709 18.9099 16.1837L19.5808 15.8483ZM20.0821 14.6392L19.8449 13.9277C19.6193 14.0029 19.4428 14.1806 19.3691 14.4066L20.0821 14.6392ZM21.9998 14L22.2369 14.7115C22.5432 14.6094 22.7498 14.3228 22.7498 14H21.9998ZM21.9998 10H22.7498C22.7498 9.67718 22.5432 9.39057 22.2369 9.28849L21.9998 10ZM20.0821 9.36076L19.3691 9.59344C19.4428 9.81944 19.6193 9.9971 19.8449 10.0723L20.0821 9.36076ZM19.5808 8.15171L18.9099 7.8163C18.8036 8.02907 18.8044 8.27969 18.9123 8.49173L19.5808 8.15171ZM20.485 6.34315L21.1559 6.67856C21.3002 6.38981 21.2436 6.04109 21.0154 5.81282L20.485 6.34315ZM17.6566 3.51472L18.1869 2.98439C17.9587 2.75612 17.6099 2.69953 17.3212 2.8439L17.6566 3.51472ZM15.848 4.419L15.508 5.0875C15.7201 5.19534 15.9707 5.19621 16.1835 5.08982L15.848 4.419ZM14.639 3.9177L13.9275 4.15488C14.0027 4.38041 14.1803 4.55695 14.4063 4.6307L14.639 3.9177ZM9.99976 2.75H13.9998V1.25H9.99976V2.75ZM10.072 4.15488L10.7113 2.23717L9.28824 1.76283L8.64901 3.68053L10.072 4.15488ZM8.49148 5.0875C8.8441 4.90814 9.21219 4.75504 9.5932 4.6307L9.12785 3.20471C8.67242 3.35333 8.23259 3.5363 7.81145 3.7505L8.49148 5.0875ZM6.00749 4.18554L7.81605 5.08982L8.48688 3.74818L6.67831 2.8439L6.00749 4.18554ZM4.04481 6.87348L6.87323 4.04505L5.81257 2.98439L2.98415 5.81281L4.04481 6.87348ZM5.08958 7.8163L4.1853 6.00773L2.84366 6.67856L3.74794 8.48712L5.08958 7.8163ZM4.63046 9.59344C4.75479 9.21243 4.9079 8.84434 5.08725 8.49173L3.75026 7.81169C3.53605 8.23283 3.35309 8.67266 3.20447 9.12809L4.63046 9.59344ZM2.23693 10.7115L4.15463 10.0723L3.68029 8.64925L1.76259 9.28849L2.23693 10.7115ZM2.74976 14V10H1.24976V14H2.74976ZM4.15463 13.9277L2.23693 13.2885L1.76259 14.7115L3.68029 15.3507L4.15463 13.9277ZM5.08725 15.5083C4.9079 15.1557 4.75479 14.7876 4.63046 14.4066L3.20446 14.8719C3.35309 15.3273 3.53605 15.7672 3.75026 16.1883L5.08725 15.5083ZM4.1853 17.9923L5.08958 16.1837L3.74794 15.5129L2.84365 17.3214L4.1853 17.9923ZM6.87323 19.955L4.04481 17.1265L2.98415 18.1872L5.81257 21.0156L6.87323 19.955ZM7.81605 18.9102L6.00749 19.8145L6.67831 21.1561L8.48687 20.2518L7.81605 18.9102ZM9.59319 19.3693C9.21219 19.245 8.8441 19.0919 8.49148 18.9125L7.81144 20.2495C8.23259 20.4637 8.67242 20.6467 9.12785 20.7953L9.59319 19.3693ZM10.7113 21.7628L10.072 19.8451L8.64901 20.3195L9.28824 22.2372L10.7113 21.7628ZM13.9998 21.25H9.99976V22.75H13.9998V21.25ZM13.9275 19.8451L13.2882 21.7628L14.7113 22.2372L15.3505 20.3195L13.9275 19.8451ZM15.508 18.9125C15.1554 19.0919 14.7873 19.245 14.4063 19.3693L14.8717 20.7953C15.3271 20.6467 15.7669 20.4637 16.1881 20.2495L15.508 18.9125ZM17.992 19.8145L16.1835 18.9102L15.5126 20.2518L17.3212 21.1561L17.992 19.8145ZM19.9547 17.1265L17.1263 19.955L18.1869 21.0156L21.0154 18.1872L19.9547 17.1265ZM18.9099 16.1837L19.8142 17.9923L21.1559 17.3214L20.2516 15.5129L18.9099 16.1837ZM19.3691 14.4066C19.2447 14.7876 19.0916 15.1557 18.9123 15.5083L20.2493 16.1883C20.4635 15.7672 20.6464 15.3273 20.795 14.8719L19.3691 14.4066ZM21.7626 13.2885L19.8449 13.9277L20.3192 15.3507L22.2369 14.7115L21.7626 13.2885ZM21.2498 10V14H22.7498V10H21.2498ZM19.8449 10.0723L21.7626 10.7115L22.2369 9.28849L20.3192 8.64925L19.8449 10.0723ZM18.9123 8.49173C19.0916 8.84434 19.2447 9.21243 19.3691 9.59344L20.795 9.12809C20.6464 8.67266 20.4635 8.23284 20.2493 7.81169L18.9123 8.49173ZM19.8142 6.00774L18.9099 7.8163L20.2516 8.48712L21.1559 6.67856L19.8142 6.00774ZM17.1263 4.04505L19.9547 6.87348L21.0154 5.81282L18.1869 2.98439L17.1263 4.04505ZM16.1835 5.08982L17.992 4.18554L17.3212 2.8439L15.5126 3.74818L16.1835 5.08982ZM14.4063 4.6307C14.7873 4.75504 15.1554 4.90814 15.508 5.0875L16.1881 3.7505C15.7669 3.5363 15.3271 3.35333 14.8717 3.20471L14.4063 4.6307ZM13.2882 2.23717L13.9275 4.15488L15.3505 3.68053L14.7113 1.76283L13.2882 2.23717ZM15.2498 12C15.2498 13.7949 13.7947 15.25 11.9998 15.25V16.75C14.6231 16.75 16.7498 14.6234 16.7498 12H15.2498ZM11.9998 8.75C13.7947 8.75 15.2498 10.2051 15.2498 12H16.7498C16.7498 9.37665 14.6231 7.25 11.9998 7.25V8.75ZM8.74976 12C8.74976 10.2051 10.2048 8.75 11.9998 8.75V7.25C9.3764 7.25 7.24976 9.37665 7.24976 12H8.74976ZM11.9998 15.25C10.2048 15.25 8.74976 13.7949 8.74976 12H7.24976C7.24976 14.6234 9.3764 16.75 11.9998 16.75V15.25Z" fill="#D4F153"/>
</svg>
