<svg width="25" height="24" viewBox="0 0 25 24" fill="none" xmlns="http://www.w3.org/2000/svg">
<mask id="path-1-inside-1_101_820" fill="white">
<path fill-rule="evenodd" clip-rule="evenodd" d="M21 8.58579L23.2929 6.29289C23.6834 5.90237 23.6834 5.2692 23.2929 4.87868L19.7071 1.29289C19.3166 0.902369 18.6834 0.902369 18.2929 1.29289L16 3.58579L21 8.58579ZM1.5 18.5V22.0858C1.5 22.6381 1.94772 23.0858 2.5 23.0858H6.08579C6.351 23.0858 6.60536 22.9804 6.79289 22.7929L19.5 10.0858L14.5 5.08579L1.79289 17.7929C1.60536 17.9804 1.5 18.2348 1.5 18.5Z"/>
</mask>
<path d="M23.2929 6.29289L22.2322 5.23223L22.2322 5.23223L23.2929 6.29289ZM21 8.58579L19.9393 9.64645C20.2206 9.92775 20.6022 10.0858 21 10.0858C21.3978 10.0858 21.7794 9.92775 22.0607 9.64645L21 8.58579ZM23.2929 4.87868L22.2322 5.93934L22.2322 5.93934L23.2929 4.87868ZM19.7071 1.29289L18.6464 2.35355L18.6464 2.35355L19.7071 1.29289ZM18.2929 1.29289L17.2322 0.232231L17.2322 0.232234L18.2929 1.29289ZM16 3.58579L14.9393 2.52513C14.3536 3.11091 14.3536 4.06066 14.9393 4.64645L16 3.58579ZM6.79289 22.7929L7.85355 23.8536L7.85355 23.8536L6.79289 22.7929ZM19.5 10.0858L20.5607 11.1464C21.1464 10.5607 21.1464 9.61091 20.5607 9.02513L19.5 10.0858ZM14.5 5.08579L15.5607 4.02513C14.9749 3.43934 14.0251 3.43934 13.4393 4.02513L14.5 5.08579ZM1.79289 17.7929L0.732233 16.7322L0.732228 16.7322L1.79289 17.7929ZM22.2322 5.23223L19.9393 7.52513L22.0607 9.64645L24.3536 7.35355L22.2322 5.23223ZM22.2322 5.93934C22.037 5.74408 22.037 5.42749 22.2322 5.23223L24.3535 7.35356C25.3299 6.37724 25.3299 4.79433 24.3535 3.81802L22.2322 5.93934ZM18.6464 2.35355L22.2322 5.93934L24.3536 3.81802L20.7678 0.232233L18.6464 2.35355ZM19.3535 2.35356C19.1583 2.54881 18.8417 2.54882 18.6464 2.35355L20.7678 0.232233C19.7915 -0.744081 18.2085 -0.744074 17.2322 0.232231L19.3535 2.35356ZM17.0607 4.64645L19.3536 2.35355L17.2322 0.232234L14.9393 2.52513L17.0607 4.64645ZM22.0607 7.52513L17.0607 2.52513L14.9393 4.64645L19.9393 9.64645L22.0607 7.52513ZM3 22.0858V18.5H0V22.0858H3ZM2.5 21.5858C2.77614 21.5858 3 21.8096 3 22.0858H0C0 23.4665 1.11929 24.5858 2.5 24.5858V21.5858ZM6.08579 21.5858H2.5V24.5858H6.08579V21.5858ZM5.73223 21.7322C5.826 21.6385 5.95318 21.5858 6.08579 21.5858V24.5858C6.74883 24.5858 7.38471 24.3224 7.85355 23.8536L5.73223 21.7322ZM18.4393 9.02513L5.73223 21.7322L7.85355 23.8536L20.5607 11.1464L18.4393 9.02513ZM13.4393 6.14645L18.4393 11.1464L20.5607 9.02513L15.5607 4.02513L13.4393 6.14645ZM2.85355 18.8536L15.5607 6.14645L13.4393 4.02513L0.732233 16.7322L2.85355 18.8536ZM3 18.5C3 18.6326 2.94732 18.7598 2.85356 18.8535L0.732228 16.7322C0.263395 17.2011 0 17.837 0 18.5H3Z" fill="#D4F153" mask="url(#path-1-inside-1_101_820)"/>
</svg>
