<svg width="24" height="24" viewBox="0 0 24 24" fill="none" xmlns="http://www.w3.org/2000/svg">
<mask id="path-1-inside-1_101_134" fill="white">
<path fill-rule="evenodd" clip-rule="evenodd" d="M20.5 8.58579L22.7929 6.29289C23.1834 5.90237 23.1834 5.2692 22.7929 4.87868L19.2071 1.29289C18.8166 0.902369 18.1834 0.902369 17.7929 1.29289L15.5 3.58579L20.5 8.58579ZM1 18.5V22.0858C1 22.6381 1.44772 23.0858 2 23.0858H5.58579C5.851 23.0858 6.10536 22.9804 6.29289 22.7929L19 10.0858L14 5.08579L1.29289 17.7929C1.10536 17.9804 1 18.2348 1 18.5Z"/>
</mask>
<path d="M22.7929 6.29289L21.7322 5.23223L21.7322 5.23223L22.7929 6.29289ZM20.5 8.58579L19.4393 9.64645C19.7206 9.92775 20.1022 10.0858 20.5 10.0858C20.8978 10.0858 21.2794 9.92775 21.5607 9.64645L20.5 8.58579ZM22.7929 4.87868L21.7322 5.93934L21.7322 5.93934L22.7929 4.87868ZM19.2071 1.29289L18.1464 2.35355L18.1464 2.35355L19.2071 1.29289ZM17.7929 1.29289L16.7322 0.232231L16.7322 0.232234L17.7929 1.29289ZM15.5 3.58579L14.4393 2.52513C13.8536 3.11091 13.8536 4.06066 14.4393 4.64645L15.5 3.58579ZM6.29289 22.7929L7.35355 23.8536L7.35355 23.8536L6.29289 22.7929ZM19 10.0858L20.0607 11.1464C20.6464 10.5607 20.6464 9.61091 20.0607 9.02513L19 10.0858ZM14 5.08579L15.0607 4.02513C14.4749 3.43934 13.5251 3.43934 12.9393 4.02513L14 5.08579ZM1.29289 17.7929L0.232233 16.7322L0.232228 16.7322L1.29289 17.7929ZM21.7322 5.23223L19.4393 7.52513L21.5607 9.64645L23.8536 7.35355L21.7322 5.23223ZM21.7322 5.93934C21.537 5.74408 21.537 5.42749 21.7322 5.23223L23.8535 7.35356C24.8299 6.37724 24.8299 4.79433 23.8535 3.81802L21.7322 5.93934ZM18.1464 2.35355L21.7322 5.93934L23.8536 3.81802L20.2678 0.232233L18.1464 2.35355ZM18.8535 2.35356C18.6583 2.54881 18.3417 2.54882 18.1464 2.35355L20.2678 0.232233C19.2915 -0.744081 17.7085 -0.744074 16.7322 0.232231L18.8535 2.35356ZM16.5607 4.64645L18.8536 2.35355L16.7322 0.232234L14.4393 2.52513L16.5607 4.64645ZM21.5607 7.52513L16.5607 2.52513L14.4393 4.64645L19.4393 9.64645L21.5607 7.52513ZM2.5 22.0858V18.5H-0.5V22.0858H2.5ZM2 21.5858C2.27614 21.5858 2.5 21.8096 2.5 22.0858H-0.5C-0.5 23.4665 0.619288 24.5858 2 24.5858V21.5858ZM5.58579 21.5858H2V24.5858H5.58579V21.5858ZM5.23223 21.7322C5.326 21.6385 5.45318 21.5858 5.58579 21.5858V24.5858C6.24883 24.5858 6.88471 24.3224 7.35355 23.8536L5.23223 21.7322ZM17.9393 9.02513L5.23223 21.7322L7.35355 23.8536L20.0607 11.1464L17.9393 9.02513ZM12.9393 6.14645L17.9393 11.1464L20.0607 9.02513L15.0607 4.02513L12.9393 6.14645ZM2.35355 18.8536L15.0607 6.14645L12.9393 4.02513L0.232233 16.7322L2.35355 18.8536ZM2.5 18.5C2.5 18.6326 2.44732 18.7598 2.35356 18.8535L0.232228 16.7322C-0.236605 17.2011 -0.5 17.837 -0.5 18.5H2.5Z" fill="#A7A7A7" mask="url(#path-1-inside-1_101_134)"/>
</svg>
