<svg width="54" height="16" viewBox="0 0 54 16" fill="none" xmlns="http://www.w3.org/2000/svg">
<path d="M42.6782 0H49.2611L49.3982 0.137144V2.14857L49.2611 2.28571H44.9639L44.8268 2.14857L44.6896 2.28571L44.8268 2.42286V13.5771L44.6896 13.7143L44.8268 13.8514L44.9639 13.7143H49.2611L49.3982 13.8514V15.8629L49.2611 16H42.6782L42.5411 15.8629V0.137144L42.6782 0ZM49.5354 2.28571H51.5468L51.6839 2.42286V4.43429L51.5468 4.57143H49.5354L49.3982 4.43429V2.42286L49.5354 2.28571ZM51.8211 4.57143H53.8325L53.9696 4.70857V11.2914L53.8325 11.4286H51.8211L51.6839 11.2914V4.70857L51.8211 4.57143ZM49.5354 11.4286H51.5468L51.6839 11.5657V13.5771L51.5468 13.7143H49.5354L49.3982 13.5771V11.5657L49.5354 11.4286Z" fill="currentColor"/>
<path d="M28.498 0H39.6523L39.7894 0.137144V2.14857L39.6523 2.28571H35.3551L35.218 2.14857L35.0808 2.28571L35.218 2.42286V15.8629L35.0808 16H33.0694L32.9323 15.8629V2.42286L33.0694 2.28571L32.9323 2.14857L32.7951 2.28571H28.498L28.3608 2.14857V0.137144L28.498 0Z" fill="currentColor"/>
<path d="M23.4604 0H25.4718L25.6089 0.137144V13.5771L25.4718 13.7143H23.4604L23.3232 13.5771V0.137144L23.4604 0ZM14.3175 0H16.3289L16.4661 0.137144V13.5771L16.3289 13.7143H14.3175L14.1804 13.5771V0.137144L14.3175 0ZM18.8889 8H20.9004L21.0375 8.13714V13.5771L20.9004 13.7143H18.8889L18.7518 13.5771V8.13714L18.8889 8ZM21.1746 13.7143H23.1861L23.3232 13.8514V15.8629L23.1861 16H21.1746L21.0375 15.8629V13.8514L21.1746 13.7143ZM16.6032 13.7143H18.6146L18.7518 13.8514V15.8629L18.6146 16H16.6032L16.4661 15.8629V13.8514L16.6032 13.7143Z" fill="currentColor"/>
<path d="M0.137143 0H11.2914L11.4286 0.137144V2.14857L11.2914 2.28571H6.99429L6.85714 2.14857L6.72 2.28571L6.85714 2.42286V15.8629L6.72 16H4.70857L4.57143 15.8629V2.42286L4.70857 2.28571L4.57143 2.14857L4.43429 2.28571H0.137143L0 2.14857V0.137144L0.137143 0Z" fill="currentColor"/>
</svg>
