<svg width="16" height="16" viewBox="0 0 16 16" fill="none" xmlns="http://www.w3.org/2000/svg">
<path fill-rule="evenodd" clip-rule="evenodd" d="M6.5 3C6.5 2.72386 6.72386 2.5 7 2.5C7.27614 2.5 7.5 2.72386 7.5 3C7.5 3.27614 7.27614 3.5 7 3.5C6.72386 3.5 6.5 3.27614 6.5 3ZM5.14538 3.75L0 3.75V2.25L5.14538 2.25C5.44207 1.51704 6.16066 1 7 1C7.83934 1 8.55793 1.51704 8.85462 2.25L16 2.25V3.75L8.85462 3.75C8.55793 4.48296 7.83934 5 7 5C6.16066 5 5.44207 4.48296 5.14538 3.75ZM11.5 8C11.5 7.72386 11.7239 7.5 12 7.5C12.2761 7.5 12.5 7.72386 12.5 8C12.5 8.27614 12.2761 8.5 12 8.5C11.7239 8.5 11.5 8.27614 11.5 8ZM10.1454 8.75H0V7.25H10.1454C10.4421 6.51704 11.1607 6 12 6C12.8393 6 13.5579 6.51704 13.8546 7.25L16 7.25V8.75L13.8546 8.75C13.5579 9.48296 12.8393 10 12 10C11.1607 10 10.4421 9.48296 10.1454 8.75ZM4 12.5C3.72386 12.5 3.5 12.7239 3.5 13C3.5 13.2761 3.72386 13.5 4 13.5C4.27614 13.5 4.5 13.2761 4.5 13C4.5 12.7239 4.27614 12.5 4 12.5ZM0 13.75H2.14538C2.44207 14.483 3.16066 15 4 15C4.83934 15 5.55793 14.483 5.85462 13.75L16 13.75V12.25L5.85462 12.25C5.55793 11.517 4.83934 11 4 11C3.16066 11 2.44207 11.517 2.14538 12.25H0V13.75Z" fill="#A7A7A7"/>
</svg>
