<svg width="16" height="16" viewBox="0 0 16 16" fill="none" xmlns="http://www.w3.org/2000/svg">
<path fill-rule="evenodd" clip-rule="evenodd" d="M13 2C12.4477 2 12 2.44772 12 3V13C12 13.5523 12.4477 14 13 14H15C15.5523 14 16 13.5523 16 13V3C16 2.44772 15.5523 2 15 2H13ZM6 7C6 6.44772 6.44772 6 7 6H9C9.55229 6 10 6.44772 10 7V13C10 13.5523 9.55229 14 9 14H7C6.44772 14 6 13.5523 6 13V7ZM0 11C0 10.4477 0.447715 10 1 10H3C3.55228 10 4 10.4477 4 11V13C4 13.5523 3.55228 14 3 14H1C0.447715 14 0 13.5523 0 13V11Z" fill="#A7A7A7"/>
</svg>
