<svg width="16" height="16" viewBox="0 0 16 16" fill="none" xmlns="http://www.w3.org/2000/svg">
<path d="M2.6526 8.58319C1.69402 7.59595 1.4119 6.71777 1.41675 5.82179L2.6526 8.58319ZM2.6526 8.58319L5.54722 11.1735L7.97198 13.0548L10.4559 11.1708L13.3474 8.58319C14.306 7.59595 14.5881 6.71777 14.5833 5.82179L2.6526 8.58319ZM8.55385 4.13122C8.26331 4.4114 7.80314 4.4114 7.5126 4.13122C6.7395 3.38568 5.81262 2.89755 4.90833 2.77855C4.02756 2.66264 3.13366 2.88909 2.33633 3.63834L8.55385 4.13122ZM8.55385 4.13122C9.33068 3.38208 10.2419 2.89654 11.1264 2.77835C11.9853 2.66358 12.8633 2.88621 13.6637 3.63834M8.55385 4.13122L13.6637 3.63834M13.6637 3.63834C14.2479 4.18771 14.5783 4.9565 14.5833 5.82158L13.6637 3.63834ZM1.41675 5.82158C1.42177 4.95659 1.7521 4.18786 2.33615 3.63851L1.41675 5.82158Z" stroke="#A7A7A7" stroke-width="1.5" stroke-linejoin="round"/>
</svg>
