<svg width="16" height="16" viewBox="0 0 16 16" fill="none" xmlns="http://www.w3.org/2000/svg">
<path fill-rule="evenodd" clip-rule="evenodd" d="M9.6988 9.2941C10.9162 8.67447 11.7501 7.40963 11.7501 5.95001C11.7501 3.87894 10.0712 2.20001 8.00009 2.20001C5.92903 2.20001 4.25009 3.87894 4.25009 5.95001C4.25009 7.4096 5.08398 8.67443 6.30133 9.29407C4.54911 9.75378 3.0306 10.9135 2.13407 12.5435L1.79074 13.1677C1.76401 13.2163 1.75 13.2709 1.75 13.3264V13.4121C1.75 13.7783 2.04685 14.0752 2.41303 14.0752H13.587C13.9532 14.0752 14.25 13.7783 14.25 13.4121V13.3264C14.25 13.2709 14.236 13.2163 14.2093 13.1677L13.8659 12.5435C12.9694 10.9135 11.451 9.75384 9.6988 9.2941Z" fill="#A7A7A7"/>
</svg>
