<svg width="16" height="16" viewBox="0 0 16 16" fill="none" xmlns="http://www.w3.org/2000/svg">
<path fill-rule="evenodd" clip-rule="evenodd" d="M9.88026 5.97632L14.1319 5.96734C14.5449 5.96647 14.8794 5.63191 14.8803 5.21893L14.8892 1.00318L13.3892 1L13.3845 3.22319C12.1862 1.91805 10.4831 1.09761 8.58665 1.09761C4.92956 1.09761 2 4.13934 2 7.84761C2 11.5559 4.92956 14.5976 8.58665 14.5976C10.6946 14.5976 12.566 13.5827 13.7677 12.016L12.5775 11.1031C11.6415 12.3234 10.1991 13.0976 8.58665 13.0976C5.79675 13.0976 3.5 10.7668 3.5 7.84761C3.5 4.92847 5.79675 2.59761 8.58665 2.59761C10.1442 2.59761 11.5454 3.32124 12.4818 4.47083L9.8771 4.47633L9.88026 5.97632Z" fill="#FF4747"/>
</svg>
