<svg width="16" height="16" viewBox="0 0 16 16" fill="none" xmlns="http://www.w3.org/2000/svg">
<path fill-rule="evenodd" clip-rule="evenodd" d="M8 15C11.866 15 15 11.866 15 8C15 4.13401 11.866 1 8 1C4.13401 1 1 4.13401 1 8C1 11.866 4.13401 15 8 15ZM8 16C12.4183 16 16 12.4183 16 8C16 3.58172 12.4183 0 8 0C3.58172 0 0 3.58172 0 8C0 12.4183 3.58172 16 8 16ZM7.26356 9.44866V8.75368C7.26356 8.53305 7.31032 8.33816 7.40382 8.16901C7.49732 7.99251 7.61031 7.82704 7.74277 7.6726C7.88302 7.51816 8.03497 7.37475 8.1986 7.24237C8.36223 7.10264 8.51028 6.96291 8.64274 6.82318C8.78299 6.67609 8.89987 6.52533 8.99338 6.37089C9.08688 6.20909 9.13363 6.02891 9.13363 5.83035C9.13363 5.52147 9.04402 5.26407 8.86481 5.05815C8.69339 4.85223 8.42067 4.74927 8.04666 4.74927C7.70381 4.74927 7.4233 4.90371 7.20513 5.21259C6.98695 5.51411 6.86228 5.90757 6.83111 6.39295H5.55713C5.57271 5.99582 5.64674 5.63546 5.7792 5.31187C5.91166 4.98828 6.08698 4.70882 6.30516 4.47348C6.52333 4.23814 6.78046 4.05796 7.07656 3.93294C7.37265 3.80056 7.69602 3.73438 8.04666 3.73438C8.47521 3.73438 8.84143 3.79689 9.14532 3.92191C9.44921 4.03958 9.69855 4.1977 9.89335 4.39626C10.0881 4.58747 10.2284 4.8081 10.3141 5.05815C10.3998 5.30819 10.4427 5.56559 10.4427 5.83035C10.4427 6.15394 10.357 6.4334 10.1855 6.66874C10.0219 6.90408 9.83491 7.13206 9.62452 7.35269C9.42193 7.56596 9.22713 7.78659 9.04013 8.01457C8.86091 8.24256 8.75962 8.50363 8.73624 8.79781V9.44866H7.26356ZM8.00029 12.4994C8.45 12.4994 8.81455 12.1348 8.81455 11.6851C8.81455 11.2354 8.45 10.8708 8.00029 10.8708C7.55059 10.8708 7.18604 11.2354 7.18604 11.6851C7.18604 12.1348 7.55059 12.4994 8.00029 12.4994Z" fill="#A7A7A7"/>
</svg>
